<svg xmlns="http://www.w3.org/2000/svg" viewBox="0 0 120 120" xml:space="preserve"><path fill="#7CBB00" d="M51.746 73.221v9.771c0 1.079.875 1.954 1.954 1.954h11.725a1.954 1.954 0 0 0 1.954-1.954v-9.771H51.746z"/><g fill="#FB0"><path d="M28.296 39.022v14.657c0 4.316 3.5 7.816 7.816 7.816h2.932v-3.908h.978V36.091h-8.794a2.932 2.932 0 0 0-2.932 2.931zM45.884 57.587h.977v3.908h25.404v-3.908h.977V36.091H45.884zM87.898 36.091h-8.794v21.496h.978v3.908h2.932c4.316 0 7.816-3.5 7.816-7.816V39.022a2.932 2.932 0 0 0-2.932-2.931z"/></g><g fill="#F65314"><path d="m40.021 69.312 2.932 3.909 2.931-3.909v-3.908h-5.863zM40.021 36.091h5.862v21.496h-5.862zM73.242 69.312l2.931 3.909 2.931-3.909v-3.908h-5.862zM73.242 36.091h5.862v21.496h-5.862z"/></g><g fill="#1A171B"><path d="M87.899 35.358H71.044v-1.222a6.603 6.603 0 0 0-6.595-6.596h-9.772a6.604 6.604 0 0 0-6.596 6.596v1.222H31.227a3.668 3.668 0 0 0-3.664 3.664v14.656c0 3.775 2.462 6.981 5.862 8.11v24.135a5.624 5.624 0 0 0 5.618 5.617h41.038a5.624 5.624 0 0 0 5.619-5.617V61.788c3.4-1.129 5.862-4.335 5.862-8.11V39.022a3.666 3.666 0 0 0-3.663-3.664zm-13.924 1.466h4.396v20.031h-4.396V36.824zm-.978 21.496h6.352v6.352h-6.352V58.32zm5.374 7.816v2.932L76.173 72l-2.198-2.932v-2.932h4.396zm-28.823-32a5.136 5.136 0 0 1 5.13-5.129h9.772a5.135 5.135 0 0 1 5.129 5.129v1.222h-20.03v-1.222zm-2.931 2.688h25.892v20.031h-.244a.732.732 0 0 0-.732.732v3.175H47.594v-3.175a.732.732 0 0 0-.732-.732h-.244V36.824zm-5.863 0h4.397v20.031h-4.397V36.824zm-.977 21.496h6.351v6.352h-6.351V58.32zm5.374 7.816v2.932L42.952 72l-2.198-2.932v-2.932h4.397zM29.029 53.678V39.022a2.2 2.2 0 0 1 2.198-2.198h8.061v20.031h-.244a.732.732 0 0 0-.732.732v3.175h-2.198a7.092 7.092 0 0 1-7.085-7.084zm55.206 32.245a4.157 4.157 0 0 1-4.153 4.152H39.044a4.157 4.157 0 0 1-4.152-4.152V62.13c.4.058.806.098 1.222.098h2.198v3.176c0 .404.328.732.732.732h.244v3.176c0 .159.052.314.147.441l2.932 3.909a.73.73 0 0 0 1.171 0l2.932-3.909a.729.729 0 0 0 .147-.441v-3.176h.244a.732.732 0 0 0 .732-.732v-3.176h23.939v3.176c0 .404.328.732.732.732h.244v3.176c0 .159.052.314.147.441l2.931 3.909a.734.734 0 0 0 1.172 0l2.932-3.909a.728.728 0 0 0 .146-.441v-3.176h.244a.733.733 0 0 0 .733-.732v-3.176h2.199a8.5 8.5 0 0 0 1.222-.098v23.793zm5.863-32.245a7.092 7.092 0 0 1-7.084 7.084h-2.199v-3.175a.733.733 0 0 0-.733-.732h-.244V36.824H87.9a2.2 2.2 0 0 1 2.198 2.198v14.656zM28.296 84.042a.733.733 0 0 0-.733.733v4.078a.733.733 0 1 0 1.466 0v-4.078a.733.733 0 0 0-.733-.733zM28.296 66.626a.733.733 0 0 0-.733.732V79.89a.733.733 0 0 0 1.466 0V67.359a.733.733 0 0 0-.733-.733z"/><path d="M90.83 62.717a.732.732 0 0 0-.732.732v4.078a.733.733 0 0 0 1.465 0v-4.078a.733.733 0 0 0-.733-.732zM90.83 71.681a.732.732 0 0 0-.732.732v12.531a.732.732 0 0 0 1.465 0V72.413a.733.733 0 0 0-.733-.732zM79.103 75.589a.733.733 0 0 0-.732.733v7.89h-4.199a.732.732 0 0 0 0 1.464h4.932a.732.732 0 0 0 .732-.732v-8.622a.733.733 0 0 0-.733-.733zM66.403 66.624h-13.68a2.692 2.692 0 0 0-2.688 2.688v3.909c0 .405.329.733.733.733h17.588a.733.733 0 0 0 .732-.733v-3.909a2.687 2.687 0 0 0-2.685-2.688zm1.221 5.865H51.502v-3.177c0-.674.548-1.221 1.222-1.221h13.68c.674 0 1.221.547 1.221 1.221v3.177zM34.159 41.219a.733.733 0 0 0-.733.732v8.622a.733.733 0 0 0 1.465 0v-8.622a.732.732 0 0 0-.732-.732z"/></g></svg>