<svg width="103" height="32" viewBox="0 0 103 32" fill="none" xmlns="http://www.w3.org/2000/svg">
<path d="M54.0539 8.04024C54.0539 9.1935 53.1246 10.1221 51.9713 10.1221C50.8181 10.1221 49.8895 9.1935 49.8895 8.04024C49.8895 6.88698 50.7864 5.95836 51.9713 5.95836C53.1572 5.99036 54.0539 6.9193 54.0539 8.04024ZM45.4691 12.2366V12.7493C45.4691 12.7493 44.4764 11.4674 42.3623 11.4674C38.8711 11.4674 36.148 14.1262 36.148 17.8096C36.148 21.4614 38.8391 24.1519 42.3623 24.1519C44.5084 24.1519 45.4691 22.8387 45.4691 22.8387V23.383C45.4691 23.6393 45.6617 23.831 45.9177 23.831H48.5119V11.7867H45.9177C45.6617 11.7877 45.4691 12.0123 45.4691 12.2366ZM45.4691 19.9558C44.9891 20.6608 44.0278 21.2694 42.8749 21.2694C40.825 21.2694 39.2551 19.9882 39.2551 17.8096C39.2551 15.6314 40.825 14.3502 42.8749 14.3502C43.9961 14.3502 45.0211 14.9908 45.4691 15.6634V19.9558ZM50.4341 11.7877H53.5089V23.8319H50.4341V11.7877ZM96.3676 11.4671C94.2534 11.4671 93.2601 12.7489 93.2601 12.7489V5.99036H90.1853V23.8319H92.7801C93.0364 23.8319 93.2281 23.6076 93.2281 23.3833V22.839C93.2281 22.839 94.2214 24.1522 96.3349 24.1522C99.8267 24.1522 102.549 21.4624 102.549 17.8106C102.549 14.1588 99.8267 11.4671 96.3676 11.4671ZM95.8549 21.2371C94.6694 21.2371 93.7407 20.6291 93.2601 19.9238V15.6314C93.7407 14.9908 94.7657 14.3182 95.8549 14.3182C97.9048 14.3182 99.4744 15.5994 99.4744 17.7776C99.4744 19.9558 97.9051 21.2371 95.8549 21.2371ZM88.5841 16.689V23.8639H85.5086V17.041C85.5086 15.0555 84.868 14.2542 83.1394 14.2542C82.2107 14.2542 81.2495 14.7348 80.6399 15.4398V23.8322H77.5657V11.788H79.9993C80.2556 11.788 80.4479 12.0123 80.4479 12.2366V12.7493C81.3448 11.82 82.5298 11.4674 83.7147 11.4674C85.0603 11.4674 86.1815 11.8523 87.0785 12.6209C88.1671 13.5179 88.5841 14.6708 88.5841 16.689ZM70.1012 11.4671C67.9877 11.4671 66.9944 12.7489 66.9944 12.7489V5.99036H63.9196V23.8319H66.5138C66.7701 23.8319 66.9624 23.6076 66.9624 23.3833V22.839C66.9624 22.839 67.9557 24.1522 70.0692 24.1522C73.561 24.1522 76.2835 21.4624 76.2835 17.8106C76.3155 14.1585 73.593 11.4671 70.1012 11.4671ZM69.5886 21.2371C68.4037 21.2371 67.475 20.6291 66.9944 19.9238V15.6314C67.475 14.9908 68.5 14.3182 69.5886 14.3182C71.6391 14.3182 73.2083 15.5994 73.2083 17.7776C73.2083 19.9558 71.6391 21.2371 69.5886 21.2371ZM61.2607 11.4671C62.1894 11.4671 62.67 11.6277 62.67 11.6277V14.4782C62.67 14.4782 60.1075 13.6132 58.5063 15.4394V23.8636H55.4308V11.7877H58.0256C58.2819 11.7877 58.4736 12.012 58.4736 12.2363V12.7489C59.0509 12.076 60.3001 11.4671 61.2607 11.4671ZM29.3257 22.7427C29.1657 22.3584 29.0054 21.942 28.8454 21.5894C28.5888 21.0131 28.3324 20.4681 28.1088 19.9558L28.0768 19.9238C25.8663 15.1188 23.4964 10.2504 20.9975 5.44605L20.9016 5.25341C20.6387 4.75501 20.3826 4.25311 20.1332 3.74784C19.8126 3.1709 19.4926 2.5629 18.98 1.98596C17.9551 0.704702 16.4815 -0.000244141 14.9122 -0.000244141C13.3103 -0.000244141 11.8691 0.704706 10.8125 1.92164C10.3318 2.49795 9.97921 3.10658 9.65922 3.68353C9.40923 4.18848 9.15311 4.69037 8.89091 5.1891L8.7946 5.38173C6.32809 10.1861 3.92589 15.0548 1.7157 19.8595L1.68338 19.9232C1.45939 20.4365 1.20275 20.9808 0.946435 21.5568C0.786438 21.9094 0.626441 22.2937 0.466444 22.71C0.0498126 23.895 -0.078511 25.0162 0.0821258 26.1698C0.434439 28.5723 2.03569 30.5896 4.2462 31.4871C5.07915 31.8398 5.94409 31.9998 6.84071 31.9998C7.09703 31.9998 7.41703 31.9678 7.67366 31.9354C8.73092 31.8074 9.81986 31.4554 10.8771 30.8468C12.1904 30.1099 13.4396 29.0533 14.8489 27.5157C16.2581 29.0533 17.5394 30.1099 18.8206 30.8468C19.8782 31.4554 20.9668 31.8074 22.0238 31.9354C22.2801 31.9681 22.6007 31.9998 22.857 31.9998C23.754 31.9998 24.6506 31.8398 25.4512 31.4871C27.6937 30.5896 29.263 28.5403 29.6156 26.1698C29.87 25.0489 29.742 23.9282 29.3257 22.7427ZM14.8799 24.4082C13.15 22.23 12.0288 20.1802 11.6448 18.4509C11.4848 17.714 11.4525 17.0733 11.5488 16.4967C11.6125 15.9841 11.8051 15.5354 12.0614 15.1511C12.67 14.2868 13.695 13.7419 14.8802 13.7419C16.0658 13.7419 17.1228 14.2545 17.6994 15.1511C17.9557 15.5354 18.1477 15.9844 18.2123 16.4967C18.308 17.0737 18.276 17.746 18.116 18.4509C17.7304 20.1482 16.6092 22.1984 14.8799 24.4082ZM27.6598 25.9138C27.4358 27.5794 26.3146 29.0212 24.7453 29.6619C23.9767 29.9819 23.1434 30.0782 22.3111 29.9819C21.5105 29.8856 20.7092 29.6292 19.8769 29.1493C18.7237 28.508 17.5707 27.5157 16.2252 26.0418C18.3391 23.4476 19.6203 21.0768 20.1009 18.9632C20.3253 17.97 20.3576 17.0733 20.2609 16.2401C20.1333 15.4395 19.8446 14.7025 19.3963 14.0619C18.4027 12.62 16.7368 11.7877 14.8796 11.7877C13.0224 11.7877 11.3565 12.6526 10.3635 14.0619C9.91521 14.7025 9.62658 15.4395 9.49858 16.2401C9.37058 17.0733 9.40226 18.002 9.65858 18.9632C10.1389 21.0768 11.4521 23.4793 13.534 26.0738C12.2208 27.5474 11.0355 28.5406 9.88225 29.1813C9.04931 29.6619 8.24901 29.9182 7.44839 30.0139C6.58376 30.1102 5.7505 29.9819 5.01387 29.6939C3.44462 29.0533 2.32337 27.6114 2.09937 25.9458C2.00337 25.1452 2.06705 24.3445 2.38769 23.4476C2.48336 23.127 2.644 22.807 2.804 22.4227C3.02831 21.91 3.28399 21.3651 3.54062 20.8208L3.57294 20.7571C5.78282 15.9841 8.15301 11.1154 10.6195 6.37499L10.7155 6.18236C10.9722 5.70237 11.2285 5.18973 11.4845 4.70911C11.7408 4.19648 12.0288 3.71584 12.3814 3.29921C13.054 2.53123 13.9506 2.11427 14.9439 2.11427C15.9372 2.11427 16.8338 2.53123 17.5064 3.29921C17.8591 3.7168 18.147 4.19743 18.4034 4.70911C18.66 5.18973 18.9163 5.70237 19.172 6.18236L19.2683 6.37499C21.6972 11.1351 24.0359 15.9406 26.2832 20.7891V20.8211C26.5398 21.3344 26.7638 21.9104 27.0202 22.4236C27.1801 22.8073 27.3405 23.1273 27.4365 23.4479C27.6921 24.2799 27.7881 25.0812 27.6598 25.9138Z" fill="#FF385C"/>
</svg>
