<svg width="30" height="30" viewBox="0 0 30 30" fill="none" xmlns="http://www.w3.org/2000/svg">
<path d="M15 0.65625C7.0875 0.65625 0.65625 7.0875 0.65625 15C0.65625 22.9125 7.0875 29.3437 15 29.3437C22.9125 29.3437 29.3437 22.9125 29.3437 15C29.3437 7.0875 22.9125 0.65625 15 0.65625ZM15 26.9062C11.2313 26.9062 7.875 25.1437 5.69063 22.3969C7.21087 20.4081 9.33114 18.9617 11.7375 18.2719C10.8701 17.722 10.1557 16.9619 9.66076 16.0621C9.16578 15.1623 8.90624 14.152 8.90625 13.125C8.90625 11.5088 9.54827 9.95887 10.6911 8.81607C11.8339 7.67327 13.3838 7.03125 15 7.03125C16.6162 7.03125 18.1661 7.67327 19.3089 8.81607C20.4517 9.95887 21.0937 11.5088 21.0937 13.125C21.0945 14.1534 20.8353 15.1653 20.3403 16.0667C19.8454 16.9682 19.1306 17.7299 18.2625 18.2812C20.6692 18.9705 22.7896 20.417 24.3094 22.4062C23.1972 23.8095 21.7821 24.9431 20.17 25.7224C18.5579 26.5016 16.7905 26.9063 15 26.9062Z" fill="#717171"/>
</svg>
